<svg width="48" height="32" viewBox="0 0 48 32" xmlns="http://www.w3.org/2000/svg">
  <g fill="none" fill-rule="evenodd">
    <rect fill="#FFFFFF" width="48" height="32" rx="4" stroke="#E3E3E3" stroke-width="1"/>
    <g transform="translate(4, 4)">
      <path d="M35.2,18.1 L35.2,19.6 L34.4,19.6 L34.4,18.1 L32.8,18.1 L32.8,17.4 L34.4,17.4 L34.4,15.9 L35.2,15.9 L35.2,17.4 L36.8,17.4 L36.8,18.1 L35.2,18.1 Z M32.8,21.1 L32.8,20.4 L36.8,20.4 L36.8,21.1 L32.8,21.1 Z" fill="#006FCF"/>
      <path d="M0,12 L40,12 L40,11.2 C40,10.5373333 39.4626667,10 38.8,10 L1.2,10 C0.5373333,10 0,10.5373333 0,11.2 L0,12 Z" fill="#006FCF"/>
      <path d="M0,13.6 L0,22.8 C0,23.4626667 0.5373333,24 1.2,24 L38.8,24 C39.4626667,24 40,23.4626667 40,22.8 L40,13.6 L0,13.6 Z" fill="#006FCF"/>
      <path d="M4.4,0 L35.6,0 C37.9195959,0 39.8,1.8804041 39.8,4.2 L39.8,8 L0.2,8 L0.2,4.2 C0.2,1.8804041 2.0804041,0 4.4,0 Z" fill="#006FCF"/>
      <polygon fill="#FFFFFF" points="13.4 5.4 11.8 5.4 11.8 7.4 9.8 5.4 8.2 5.4 8.2 9.8 9.8 9.8 9.8 7.8 11.8 9.8 13.4 9.8"/>
      <path d="M15.6,9.8 L17.2,9.8 L17.2,7.8 C17.2,7.8 18.2,9.8 19.8,9.8 L21.2,9.8 L19,7.6 L21.2,5.4 L19.6,5.4 C18.2,5.4 17.2,7.2 17.2,7.2 L17.2,5.4 L15.6,5.4 L15.6,9.8 Z" fill="#FFFFFF"/>
      <polygon fill="#FFFFFF" points="21.8 9.8 23.4 9.8 23.4 5.4 21.8 5.4"/>
      <polygon fill="#FFFFFF" points="24 9.8 25.6 9.8 25.6 8.2 28 8.2 28 7 25.6 7 25.6 6.6 28.4 6.6 28.4 5.4 24 5.4"/>
      <path d="M28.8,5.4 L28.8,9.8 L32.4,9.8 C33.4,9.8 34.2,9 34.2,8 C34.2,7.4 33.8,6.8 33.2,6.6 C33.6,6.4 34,6 34,5.4 C34,5.4 33.8,4 32,4 C31.2,4 28.8,4 28.8,4 L28.8,5.4 Z M30.4,5.4 L32,5.4 C32.4,5.4 32.6,5.6 32.6,5.8 C32.6,6 32.4,6.2 32,6.2 L30.4,6.2 L30.4,5.4 Z M30.4,7.4 L32,7.4 C32.4,7.4 32.6,7.6 32.6,8 C32.6,8.4 32.4,8.6 32,8.6 L30.4,8.6 L30.4,7.4 Z" fill="#FFFFFF"/>
      <polygon fill="#FFFFFF" points="8.2 14.4 6.6 14.4 6.6 18.8 10.2 18.8 10.2 17.4 8.2 17.4"/>
      <polygon fill="#FFFFFF" points="10.6 18.8 12.2 18.8 12.2 14.4 10.6 14.4"/>
      <path d="M16.2,14.4 L14.2,14.4 C13,14.4 12.6,15.4 12.6,16.6 C12.6,17.8 13,18.8 14.2,18.8 L16.2,18.8 C17.4,18.8 17.8,17.8 17.8,16.6 C17.8,15.4 17.4,14.4 16.2,14.4 Z M16.2,17.4 L14.2,17.4 C14,17.4 13.8,17 13.8,16.6 C13.8,16.2 14,15.8 14.2,15.8 L16.2,15.8 C16.4,15.8 16.6,16.2 16.6,16.6 C16.6,17 16.4,17.4 16.2,17.4 Z" fill="#FFFFFF"/>
      <polygon fill="#FFFFFF" points="21.8 18.8 23.4 18.8 23.4 17.2 25.8 17.2 25.8 16 23.4 16 23.4 15.6 26.2 15.6 26.2 14.4 21.8 14.4"/>
      <polygon fill="#FFFFFF" points="26.6 18.8 28.2 18.8 28.2 17.2 29 17.2 30.2 18.8 32 18.8 30.6 16.8 32 14.4 30.2 14.4 29 16 28.2 16 28.2 14.4 26.6 14.4"/>
      <polygon fill="#FFFFFF" points="18.2 18.8 19.8 18.8 19.8 16.8 21.2 18.8 23 18.8 21 16.2 23 14.4 21.2 14.4 19.8 16 19.8 14.4 18.2 14.4"/>
    </g>
  </g>
</svg>
