<svg width="48" height="32" viewBox="0 0 48 32" xmlns="http://www.w3.org/2000/svg">
  <g fill="none" fill-rule="evenodd">
    <rect fill="#FFFFFF" width="48" height="32" rx="4" stroke="#E3E3E3" stroke-width="1"/>
    <g transform="translate(6, 7)">
      <path d="M30.6667,15.2 C30.0667,15.2 29.6,15.6667 29.6,16.2667 C29.6,16.8667 30.0667,17.3333 30.6667,17.3333 C31.2667,17.3333 31.7333,16.8667 31.7333,16.2667 C31.7333,15.6667 31.2667,15.2 30.6667,15.2 Z M27.2,15.2 C26.6,15.2 26.1333,15.6667 26.1333,16.2667 C26.1333,16.8667 26.6,17.3333 27.2,17.3333 C27.8,17.3333 28.2667,16.8667 28.2667,16.2667 C28.2667,15.6667 27.8,15.2 27.2,15.2 Z" fill="#000000"/>
      <path d="M33.3333,6.4 L33.3333,17.0667 C33.3333,17.8667 32.6667,18.5333 31.8667,18.5333 L4.1333,18.5333 C3.3333,18.5333 2.6667,17.8667 2.6667,17.0667 L2.6667,6.4 C2.6667,5.6 3.3333,4.9333 4.1333,4.9333 L31.8667,4.9333 C32.6667,4.9333 33.3333,5.6 33.3333,6.4 Z" fill="#000000"/>
      <path d="M9.8667,9.0667 C9.8667,10.4 10.8,11.4667 12.2667,11.4667 C13.7333,11.4667 14.6667,10.4 14.6667,9.0667 C14.6667,7.7333 13.7333,6.6667 12.2667,6.6667 C10.8,6.6667 9.8667,7.7333 9.8667,9.0667 Z M14.6667,9.0667 L16.4,9.0667 C16.4,7.7333 15.4667,6.6667 14,6.6667 C12.5333,6.6667 11.6,7.7333 11.6,9.0667 C11.6,10.4 12.5333,11.4667 14,11.4667 C14.8,11.4667 15.4667,11.0667 15.8667,10.4 L14.6667,9.7333 C14.5333,10 14.2667,10.1333 14,10.1333 C13.4667,10.1333 13.0667,9.7333 13.0667,9.0667 C13.0667,8.4 13.4667,8 14,8 C14.2667,8 14.5333,8.1333 14.6667,8.4 L14.6667,9.0667 Z M17.7333,11.3333 L19.2,11.3333 L19.2,8 L20.2667,8 L20.2667,6.8 L16.6667,6.8 L16.6667,8 L17.7333,8 L17.7333,11.3333 Z M21.0667,11.3333 L22.5333,11.3333 L22.5333,6.8 L21.0667,6.8 L21.0667,11.3333 Z M25.6,11.3333 L27.0667,11.3333 L27.0667,9.4667 L28.8,9.4667 L28.8,8.2667 L27.0667,8.2667 L27.0667,8 L28.9333,8 L28.9333,6.8 L25.6,6.8 L25.6,11.3333 Z M23.3333,9.0667 C23.3333,10.4 24.2667,11.4667 25.7333,11.4667 C26.5333,11.4667 27.2,11.0667 27.6,10.4 L26.4,9.7333 C26.2667,10 26,10.1333 25.7333,10.1333 C25.2,10.1333 24.8,9.7333 24.8,9.0667 C24.8,8.4 25.2,8 25.7333,8 C26,8 26.2667,8.1333 26.4,8.4 L27.6,7.7333 C27.2,7.0667 26.5333,6.6667 25.7333,6.6667 C24.2667,6.6667 23.3333,7.7333 23.3333,9.0667 Z" fill="#FFFFFF"/>
      <path d="M8.6667,13.3333 L8.6667,14.5333 L9.0667,14.5333 C9.3333,14.5333 9.4667,14.6667 9.4667,14.9333 L9.4667,16.1333 C9.4667,16.4 9.3333,16.5333 9.0667,16.5333 L7.0667,16.5333 C6.8,16.5333 6.6667,16.4 6.6667,16.1333 L6.6667,14.9333 C6.6667,14.6667 6.8,14.5333 7.0667,14.5333 L7.4667,14.5333 L7.4667,13.3333 L6.8,13.3333 C6,13.3333 5.3333,14 5.3333,14.8 L5.3333,16.2667 C5.3333,17.0667 6,17.7333 6.8,17.7333 L9.3333,17.7333 C10.1333,17.7333 10.8,17.0667 10.8,16.2667 L10.8,14.8 C10.8,14 10.1333,13.3333 9.3333,13.3333 L8.6667,13.3333 Z M13.8667,13.3333 L12.6667,13.3333 C11.8667,13.3333 11.2,14 11.2,14.8 L11.2,16.2667 C11.2,17.0667 11.8667,17.7333 12.6667,17.7333 L13.8667,17.7333 C14.6667,17.7333 15.3333,17.0667 15.3333,16.2667 L15.3333,14.8 C15.3333,14 14.6667,13.3333 13.8667,13.3333 Z M13.8667,16.5333 L12.6667,16.5333 C12.4,16.5333 12.2667,16.4 12.2667,16.1333 L12.2667,14.9333 C12.2667,14.6667 12.4,14.5333 12.6667,14.5333 L13.8667,14.5333 C14.1333,14.5333 14.2667,14.6667 14.2667,14.9333 L14.2667,16.1333 C14.2667,16.4 14.1333,16.5333 13.8667,16.5333 Z M18.6667,13.3333 L17.4667,13.3333 C16.6667,13.3333 16,14 16,14.8 L16,17.6 L17.0667,17.6 L17.0667,16.5333 L19.0667,16.5333 L19.0667,17.6 L20.1333,17.6 L20.1333,14.8 C20.1333,14 19.4667,13.3333 18.6667,13.3333 Z M19.0667,15.4667 L17.0667,15.4667 L17.0667,14.9333 C17.0667,14.6667 17.2,14.5333 17.4667,14.5333 L18.6667,14.5333 C18.9333,14.5333 19.0667,14.6667 19.0667,14.9333 L19.0667,15.4667 Z M23.7333,13.3333 L21.7333,13.3333 C20.9333,13.3333 20.2667,14 20.2667,14.8 L20.2667,16.2667 C20.2667,17.0667 20.9333,17.7333 21.7333,17.7333 L23.7333,17.7333 L23.7333,16.5333 L21.7333,16.5333 C21.4667,16.5333 21.3333,16.4 21.3333,16.1333 L21.3333,14.9333 C21.3333,14.6667 21.4667,14.5333 21.7333,14.5333 L23.7333,14.5333 L23.7333,13.3333 Z" fill="#FFFFFF"/>
    </g>
  </g>
</svg>
