<svg width="48" height="32" viewBox="0 0 48 32" xmlns="http://www.w3.org/2000/svg">
  <g fill="none" fill-rule="evenodd">
    <rect fill="#FFFFFF" width="48" height="32" rx="4" stroke="#E3E3E3" stroke-width="1"/>
    <g transform="translate(8, 8)">
      <path d="M22.2,10.6 L22.2,13.5 L21.1,13.5 L21.1,5.3 L24.8,5.3 C25.6,5.3 26.3,5.6 26.9,6.1 C27.5,6.6 27.8,7.3 27.8,8.1 C27.8,8.9 27.5,9.6 26.9,10.1 C26.3,10.6 25.6,10.8 24.8,10.8 L22.2,10.6 Z M22.2,6.5 L22.2,9.4 L24.8,9.6 C25.2,9.6 25.5,9.5 25.8,9.2 C26.1,8.9 26.2,8.6 26.2,8.2 C26.2,7.8 26.1,7.5 25.8,7.2 C25.5,6.9 25.2,6.8 24.8,6.8 L22.2,6.5 Z" fill="#5F6368"/>
      <path d="M29.3,8.5 C30.1,8.5 30.7,8.7 31.2,9.1 C31.7,9.5 31.9,10.1 31.9,10.9 L31.9,13.5 L30.8,13.5 L30.8,12.7 L30.7,12.7 C30.3,13.3 29.7,13.6 28.9,13.6 C28.3,13.6 27.7,13.4 27.3,13.1 C26.9,12.8 26.7,12.3 26.7,11.8 C26.7,11.2 26.9,10.8 27.4,10.4 C27.8,10.1 28.4,9.9 29.2,9.9 C29.9,9.9 30.4,10 30.8,10.2 L30.8,10 C30.8,9.6 30.6,9.3 30.4,9.1 C30.1,8.9 29.8,8.7 29.4,8.7 C28.8,8.7 28.3,9 28,9.5 L27,9 C27.5,8.7 28.3,8.5 29.3,8.5 Z M29.1,12.6 C29.5,12.6 29.9,12.5 30.2,12.2 C30.5,11.9 30.7,11.6 30.7,11.2 C30.4,11 30,10.9 29.4,10.9 C28.4,10.9 27.9,11.2 27.9,11.8 C27.9,12.1 28,12.3 28.3,12.5 C28.5,12.5 28.8,12.6 29.1,12.6 Z" fill="#5F6368"/>
      <path d="M37.9,8.7 L35.2,15.9 L34,15.9 L34.9,13.8 L32.6,8.7 L33.8,8.7 L35.4,12.5 L35.5,12.5 L37,8.7 L37.9,8.7 Z" fill="#5F6368"/>
      <path d="M18.6,10.4 C18.6,10.1 18.6,9.8 18.5,9.5 L12.2,9.5 L12.2,11.2 L15.8,11.2 C15.7,11.9 15.3,12.5 14.7,12.9 L14.7,14.1 L16.4,14.1 C17.6,13 18.6,11.8 18.6,10.4 Z" fill="#4285F4"/>
      <path d="M12.2,15.9 C13.6,15.9 14.8,15.4 15.7,14.6 L14,13.4 C13.5,13.7 12.9,13.9 12.2,13.9 C10.9,13.9 9.8,13 9.4,11.8 L7.6,11.8 L7.6,13 C8.5,14.8 10.2,15.9 12.2,15.9 Z" fill="#34A853"/>
      <path d="M9.4,11.8 C9.3,11.5 9.2,11.2 9.2,10.9 C9.2,10.6 9.3,10.3 9.4,10 L9.4,8.8 L7.6,8.8 C7.2,9.4 7,10.1 7,10.9 C7,11.7 7.2,12.4 7.6,13 L9.4,11.8 Z" fill="#FBBC04"/>
      <path d="M12.2,7.9 C13,7.9 13.7,8.2 14.2,8.6 L15.7,7.1 C14.8,6.3 13.6,5.8 12.2,5.8 C10.2,5.8 8.5,6.9 7.6,8.8 L9.4,10 C9.8,8.8 10.9,7.9 12.2,7.9 Z" fill="#EA4335"/>
    </g>
  </g>
</svg>
