<?xml version="1.0" encoding="UTF-8"?>
<svg width="750" height="471" viewBox="0 0 750 471" xmlns="http://www.w3.org/2000/svg">
  <rect width="750" height="471" rx="40" fill="#fff" stroke="#E3E3E3" stroke-width="1"/>
  <path d="M212.5 196.1c-7.3 4.3-15.3 7.6-24.3 7.9-11.9.5-22.8-6.5-28.8-6.5-6 0-15.3 6.3-25.1 6.1-12.9-.2-24.8-7.5-31.4-19.1-13.4-23.2-3.4-57.5 9.6-76.3 6.4-9.3 14-19.7 24-19.3 9.6.4 13.3 6.2 24.9 6.2 11.6 0 14.9-6.2 25.1-6 10.5.2 17.1 9.5 23.5 18.8 7.4 10.8 10.4 21.2 10.6 21.8-.2.1-20.3 7.8-20.5 30.9-.2 19.4 16.1 26 16.4 26.5zm-30.9-111.8c5.2-6.3 8.7-15.1 7.7-23.8-7.5.3-16.5 5-21.8 11.3-4.8 5.5-9 14.4-7.8 22.9 8.3.6 16.8-4.1 21.9-10.4z" fill="#000"/>
  <path d="M346.5 150.7h-24.8l-6 17.8h-10.6l23.7-65.6h10.7l23.7 65.6h-10.7l-6-17.8zm-22.2-8.2h19.7l-9.7-28.6h-.3l-9.7 28.6zm78.8 26h-9.8v-7.5h-.3c-2.4 5.2-7.8 8.4-14.1 8.4-10.2 0-16-6.9-16-17.9v-31.1h10.3v29.3c0 7.1 3.3 11 9.4 11 6.5 0 10.3-4.6 10.3-11.8v-28.5h10.3v48.1zm45.1-48.1h9.8v7.5h.3c2.4-5.2 7.8-8.4 14.1-8.4 10.2 0 16 6.9 16 17.9v31.1h-10.3v-29.3c0-7.1-3.3-11-9.4-11-6.5 0-10.3 4.6-10.3 11.8v28.5h-10.3v-48.1zm83.5 53.1c-14.4 0-23.5-9.8-23.5-24.8 0-15 9.1-24.9 23.5-24.9 14.4 0 23.5 9.9 23.5 24.9 0 15-9.1 24.8-23.5 24.8zm0-8.3c7.9 0 12.9-6.7 12.9-16.5 0-9.9-5-16.6-12.9-16.6-7.9 0-12.9 6.7-12.9 16.6 0 9.8 5 16.5 12.9 16.5zm51.2 8.3c-10.3 0-17.4-5.8-17.9-14.2h10c.5 3.7 3.6 6 8.2 6 4.3 0 7.2-2.2 7.2-5.2 0-9.2-24.1-3.5-24.1-20 0-7.2 6.3-12.5 16.2-12.5 9.7 0 16.4 5.7 16.7 14.1h-9.8c-.4-3.7-3.2-6-7.1-6-4 0-6.6 1.9-6.6 4.9 0 9 24.1 3.3 24.3 20.1 0 7.5-6.5 12.8-17.1 12.8zm35.5-5v-35.1h-9.1v-8h9.1v-14.8h10.3v14.8h12.6v8h-12.6v33.3c0 4.2 1.9 6.1 6.1 6.1 2.1 0 4.4-.3 5.8-.7v8.1c-1.9.6-4.8 1-8 1-10.1 0-14.2-3.8-14.2-12.7z" fill="#000"/>
  <path d="M212.5 295.1c-7.3 4.3-15.3 7.6-24.3 7.9-11.9.5-22.8-6.5-28.8-6.5-6 0-15.3 6.3-25.1 6.1-12.9-.2-24.8-7.5-31.4-19.1-13.4-23.2-3.4-57.5 9.6-76.3 6.4-9.3 14-19.7 24-19.3 9.6.4 13.3 6.2 24.9 6.2 11.6 0 14.9-6.2 25.1-6 10.5.2 17.1 9.5 23.5 18.8 7.4 10.8 10.4 21.2 10.6 21.8-.2.1-20.3 7.8-20.5 30.9-.2 19.4 16.1 26 16.4 26.5zm-30.9-111.8c5.2-6.3 8.7-15.1 7.7-23.8-7.5.3-16.5 5-21.8 11.3-4.8 5.5-9 14.4-7.8 22.9 8.3.6 16.8-4.1 21.9-10.4z" fill="#000" fill-opacity=".2"/>
  <path d="M250.7 257.6c0-14.9 12.2-23.1 33.9-24.3l24.9-1.4v-6.3c0-6.2-4.1-9.7-11.4-9.7-6.2 0-10.5 3.2-11.3 7.8h-9.8c.7-9.6 9.4-16.5 21.5-16.5 13.2 0 21.3 7.1 21.3 18v37.9h-9.8v-9h-.3c-3 6.1-9.7 9.9-17.3 9.9-11 0-18.7-6.7-18.7-16.4zm58.8-5v-6.5l-22.5 1.4c-8.5.5-13.3 4.1-13.3 9.9 0 5.8 4.8 9.5 12.1 9.5 13.1 0 23.7-9.7 23.7-14.3zm69.9 20.5h-9.8v-7.5h-.3c-2.4 5.2-7.8 8.4-14.1 8.4-10.2 0-16-6.9-16-17.9v-31.1h10.3v29.3c0 7.1 3.3 11 9.4 11 6.5 0 10.3-4.6 10.3-11.8v-28.5h10.3v48.1zm45.1-48.1h9.8v7.5h.3c2.4-5.2 7.8-8.4 14.1-8.4 10.2 0 16 6.9 16 17.9v31.1h-10.3v-29.3c0-7.1-3.3-11-9.4-11-6.5 0-10.3 4.6-10.3 11.8v28.5h-10.3v-48.1zm83.5 53.1c-14.4 0-23.5-9.8-23.5-24.8 0-15 9.1-24.9 23.5-24.9 14.4 0 23.5 9.9 23.5 24.9 0 15-9.1 24.8-23.5 24.8zm0-8.3c7.9 0 12.9-6.7 12.9-16.5 0-9.9-5-16.6-12.9-16.6-7.9 0-12.9 6.7-12.9 16.6 0 9.8 5 16.5 12.9 16.5zm51.2 8.3c-10.3 0-17.4-5.8-17.9-14.2h10c.5 3.7 3.6 6 8.2 6 4.3 0 7.2-2.2 7.2-5.2 0-9.2-24.1-3.5-24.1-20 0-7.2 6.3-12.5 16.2-12.5 9.7 0 16.4 5.7 16.7 14.1h-9.8c-.4-3.7-3.2-6-7.1-6-4 0-6.6 1.9-6.6 4.9 0 9 24.1 3.3 24.3 20.1 0 7.5-6.5 12.8-17.1 12.8z" fill="#000" fill-opacity=".2"/>
</svg>
