<?xml version="1.0" encoding="UTF-8"?>
<svg width="750" height="471" viewBox="0 0 750 471" xmlns="http://www.w3.org/2000/svg">
  <rect width="750" height="471" rx="40" fill="#fff" stroke="#E3E3E3" stroke-width="1"/>
  <g transform="translate(150, 150)">
    <path d="M375.8,110.6 L375.8,167.5 L354.1,167.5 L354.1,30.5 L416.2,30.5 C428.9,30.5 440.5,35.6 449.9,45.8 C459.3,56 464,68.3 464,82.7 C464,97.1 459.3,109.4 449.9,119.6 C440.5,129.8 428.9,134.9 416.2,134.9 L375.8,110.6 Z M375.8,50.5 L375.8,114.9 L416.2,134.9 C423.2,134.9 429.5,132.5 434.8,127.7 C440.1,122.9 442.8,117.1 442.8,110.3 C442.8,103.5 440.1,97.7 434.8,92.9 C429.5,88.1 423.2,85.7 416.2,85.7 L375.8,50.5 Z" fill="#5F6368"/>
    <path d="M497.3,85.5 C511.1,85.5 522.7,89.7 532.2,98.1 C541.7,106.5 546.5,117.1 546.5,129.9 L546.5,167.5 L525.8,167.5 L525.8,153.7 L524.8,153.7 C516.8,164.3 506.7,169.6 494.9,169.6 C484.3,169.6 475.7,166.4 469.3,160 C462.9,153.6 459.7,145.3 459.7,135.8 C459.7,125.2 463.9,116.8 472.4,110.4 C480.8,104.1 491.4,100.9 504.2,100.9 C514.9,100.9 523.4,103 529.8,107.2 L529.8,104 C529.8,97.2 527.1,91.3 521.8,86.3 C516.5,81.3 510.3,78.7 503.3,78.7 C492.8,78.7 484.3,84 477.8,94.5 L459.7,85 C469.3,72 481.3,85.5 497.3,85.5 Z M496.1,152.6 C503.1,152.6 509.4,150.5 514.7,146.3 C520,142.1 522.7,136.8 522.7,130.4 C517.4,125.2 509.9,122.6 500.3,122.6 C482.3,122.6 473.3,128.3 473.3,139.8 C473.3,144 475,147.5 478.5,150.3 C481.9,151.8 488.1,152.6 496.1,152.6 Z" fill="#5F6368"/>
    <path d="M627.9,87.7 L583.2,199.9 L560.5,199.9 L576.9,167.8 L539.6,87.7 L563.3,87.7 L587,147.5 L588,147.5 L610.7,87.7 L627.9,87.7 Z" fill="#5F6368"/>
    <path d="M326.6,120.4 C326.6,115.1 326.1,109.8 325.1,104.5 L225.2,104.5 L225.2,132.2 L283.8,132.2 C281.7,144 273.8,153.9 262.1,159.6 L262.1,179.1 L291.8,179.1 C311.3,161.7 326.6,142.7 326.6,120.4 Z" fill="#4285F4"/>
    <path d="M225.2,199.9 C249.5,199.9 269.5,191.1 284.3,177.1 L254.6,157.6 C246.7,162.9 237.3,166.1 225.2,166.1 C203.5,166.1 185.4,151.9 178.5,132.4 L148.3,132.4 L148.3,152.4 C163.1,182.4 192.3,199.9 225.2,199.9 Z" fill="#34A853"/>
    <path d="M178.5,132.4 C176.9,127.1 176.1,121.3 176.1,115.6 C176.1,109.8 176.9,104.1 178.5,98.8 L178.5,78.8 L148.3,78.8 C142,89.4 138.8,101.7 138.8,115.6 C138.8,129.4 142,141.8 148.3,152.4 L178.5,132.4 Z" fill="#FBBC04"/>
    <path d="M225.2,64.9 C238.3,64.9 249.5,69.7 258.4,78.1 L284.3,52.2 C269,37.8 249,29 225.2,29 C192.3,29 163.1,46.5 148.3,76.5 L178.5,96.5 C185.4,77 203.5,64.9 225.2,64.9 Z" fill="#EA4335"/>
  </g>
</svg>
