<?xml version="1.0" encoding="UTF-8"?>
<svg xmlns="http://www.w3.org/2000/svg" xmlns:xlink="http://www.w3.org/1999/xlink" width="0" height="0">
  <!-- Payment Method Icons Sprite Sheet -->
  
  <!-- Credit Cards -->
  <symbol id="visa" viewBox="0 0 48 32">
    <rect width="48" height="32" fill="#F9F9F9" rx="4"/>
    <path fill="#2566AF" d="M18.7 20.2l1.5-9h2.4l-1.5 9h-2.4zm10-8.7c-.8-.3-2-.7-3.5-.7-3.9 0-6.6 2-6.6 4.8 0 2.1 2 3.2 3.4 3.9 1.5.7 2 1.2 2 1.8 0 1-1.2 1.4-2.3 1.4-1.5 0-2.4-.2-3.7-.8l-.5-.2-.5 3.1c.9.4 2.6.8 4.3.8 4 0 6.7-1.9 6.7-5 0-1.6-1-2.9-3.2-3.9-1.3-.7-2.2-1.1-2.2-1.8 0-.6.7-1.2 2.2-1.2 1.3 0 2.2.3 2.9.6l.3.2.6-2.9zm4.2-1.7h-1.8c-.6 0-1 .2-1.2.7l-3.5 8.3h2.5l.5-1.3h3l.3 1.3h2.2l-2-9zm-3 5.7l.9-2.4.4-1.1.2 1 .5 2.5h-2zm-16.5-5.7l-2.3 6-3-5.1c-.2-.3-.5-.6-1-.6h-3.8l-.1.3c1 .2 2.2.6 2.9 1l2.4 8.4h2.5l4.3-10h-1.9z"/>
  </symbol>
  
  <symbol id="mastercard" viewBox="0 0 48 32">
    <rect width="48" height="32" fill="#F9F9F9" rx="4"/>
    <path fill="#FF5F00" d="M18.3 9.5h11.4v13H18.3z"/>
    <path fill="#EB001B" d="M19.3 16a8.3 8.3 0 0 1 3.2-6.5 8.3 8.3 0 1 0 0 13 8.3 8.3 0 0 1-3.2-6.5z"/>
    <path fill="#F79E1B" d="M35.9 16a8.3 8.3 0 0 1-13.4 6.5 8.3 8.3 0 0 0 0-13A8.3 8.3 0 0 1 35.9 16z"/>
  </symbol>
  
  <symbol id="american-express" viewBox="0 0 48 32">
    <rect width="48" height="32" fill="#F9F9F9" rx="4"/>
    <path fill="#006FCF" d="M4 16.2V10h5.4l1.2 1.3L11.8 10H40v12.3H4V16.2zm20.3 1.8h4.5v-1.6h-4.5v1.6zm-2.6-5.3h-4.5v1.6h4.1v1.5h-4.1v1.6h4.6l2-2.3-2-2.4zm11.7 5.3l3-3.4-3-3.5h-6.6v7h6.6zm-4.5-5.3h3.1l1.7 2-1.7 2h-3.1v-1.3h2.7v-1.4h-2.7v-1.3zM9.7 18l3-3.4-3-3.5H4v7h5.7zm-3.6-5.3h2.3l1.7 2-1.7 2H6.1v-1.3h2.3v-1.4H6.1v-1.3z"/>
  </symbol>
  
  <symbol id="discover" viewBox="0 0 48 32">
    <rect width="48" height="32" fill="#F9F9F9" rx="4"/>
    <path fill="#F58025" d="M44 21.3a11.3 11.3 0 0 1-11.3 0V10.7a11.3 11.3 0 0 1 11.3 0v10.6z"/>
    <path fill="#000" d="M9.7 14.9c0-1.2-.7-2.2-1.9-2.2H5.5v7.5h2.3c1.2 0 1.9-1 1.9-2.2v-3.1zm-1.3 3c0 .7-.4 1.3-1.2 1.3h-.5v-5.4h.5c.8 0 1.2.6 1.2 1.3v2.8zm2.5-5.2h1.2v7.5h-1.2v-7.5zm3.5 2.5c-.7 0-1.2.5-1.4 1.2h2.7c0-.7-.5-1.2-1.3-1.2zm-1.4 2.3c.1.8.6 1.3 1.5 1.3.5 0 .9-.3 1.2-.7h1.3c-.4 1.1-1.3 1.8-2.5 1.8-1.6 0-2.7-1.1-2.7-2.7 0-1.6 1.1-2.7 2.7-2.7 1.6 0 2.6 1.2 2.6 2.7 0 .2 0 .3-.1.4h-4zm5.5-2.3h1.1v1h.1c.3-.7.8-1.1 1.6-1.1h.3v1.2h-.4c-1 0-1.5.4-1.5 1.6v3h-1.2v-5.7zm7.9 2.9c0-1.6-1-2.7-2.5-2.7s-2.5 1.1-2.5 2.7 1 2.7 2.5 2.7 2.5-1.1 2.5-2.7zm-1.2 0c0 1-.6 1.6-1.3 1.6s-1.3-.7-1.3-1.6c0-1 .6-1.6 1.3-1.6s1.3.7 1.3 1.6zm4.8-2.9h1.1v1h.1c.3-.7.8-1.1 1.6-1.1h.3v1.2h-.4c-1 0-1.5.4-1.5 1.6v3h-1.2v-5.7z"/>
  </symbol>
  
  <!-- Digital Wallets -->
  <symbol id="paypal" viewBox="0 0 48 32">
    <rect width="48" height="32" fill="#F9F9F9" rx="4"/>
    <path fill="#253B80" d="M19.4 13.1h-2.9c-.2 0-.4.2-.4.4l-1.2 7.6c0 .2.1.3.3.3h1.4c.2 0 .4-.2.4-.4l.3-2c0-.2.2-.4.4-.4h.9c2 0 3.1-1 3.4-2.8.1-.8 0-1.5-.4-1.9-.4-.5-1.2-.8-2.2-.8zm.3 2.7c-.2 1.1-1 1.1-1.8 1.1h-.5l.3-2c0-.1.1-.2.3-.2h.2c.6 0 1.1 0 1.4.3.2.2.2.5.1.8z"/>
    <path fill="#179BD7" d="M29.3 13.1h-2.9c-.2 0-.4.2-.4.4l-1.2 7.6c0 .2.1.3.3.3h1.5c.2 0 .3-.1.3-.3l.3-2.1c0-.2.2-.4.4-.4h.9c2 0 3.1-1 3.4-2.8.1-.8 0-1.5-.4-1.9-.4-.5-1.2-.8-2.2-.8zm.3 2.7c-.2 1.1-1 1.1-1.8 1.1h-.5l.3-2c0-.1.1-.2.3-.2h.2c.6 0 1.1 0 1.4.3.2.2.2.5.1.8z"/>
    <path fill="#253B80" d="M24.7 15.8h-1.5c-.1 0-.2.1-.3.2l-.1.3-.1-.2c-.2-.3-.7-.4-1.2-.4-1.1 0-2.1.9-2.3 2.1-.1.6 0 1.2.3 1.6.3.4.8.6 1.3.6.9 0 1.4-.6 1.4-.6l-.1.3c0 .2.1.3.3.3h1.3c.2 0 .4-.2.4-.4l.8-5.2c.1-.1 0-.3-.2-.3zm-2.1 2.9c-.1.6-.6 1-1.2 1-.3 0-.5-.1-.7-.3-.1-.2-.2-.5-.1-.8.1-.6.6-1 1.2-1 .3 0 .5.1.7.3.1.2.2.5.1.8z"/>
    <path fill="#179BD7" d="M34.6 15.8h-1.5c-.1 0-.2.1-.3.2l-.1.3-.1-.2c-.2-.3-.7-.4-1.2-.4-1.1 0-2.1.9-2.3 2.1-.1.6 0 1.2.3 1.6.3.4.8.6 1.3.6.9 0 1.4-.6 1.4-.6l-.1.3c0 .2.1.3.3.3h1.3c.2 0 .4-.2.4-.4l.8-5.2c.1-.1-.1-.3-.2-.3zm-2.1 2.9c-.1.6-.6 1-1.2 1-.3 0-.5-.1-.7-.3-.1-.2-.2-.5-.1-.8.1-.6.6-1 1.2-1 .3 0 .5.1.7.3.1.2.2.5.1.8z"/>
    <path fill="#253B80" d="M36.9 13.2l-1.2 7.9c0 .2.1.3.3.3h1.2c.2 0 .4-.2.4-.4l1.2-7.6c0-.2-.1-.3-.3-.3h-1.3c-.1-.1-.2 0-.3.1z"/>
  </symbol>
  
  <symbol id="apple-pay" viewBox="0 0 48 32">
    <rect width="48" height="32" fill="#F9F9F9" rx="4"/>
    <path d="M16.6 11.4a2.6 2.6 0 0 1 2.2 1.3 2.6 2.6 0 0 0-2.2-1.3 2.7 2.7 0 0 0-2.2 1.3 2.7 2.7 0 0 1 2.2-1.3zm.4 1c-.7 0-1.3.4-1.7.4-.4 0-1-.3-1.6-.3a2.5 2.5 0 0 0-2.1 1.3c-.9 1.5-.2 3.7.6 5 .4.6 1 1.2 1.6 1.2.7 0 .9-.4 1.7-.4s1 .4 1.7.4c.7 0 1.2-.6 1.6-1.2.3-.5.5-1 .6-1.5-1.4-.5-1.7-2.3-.3-3-.4-.5-1-1-1.7-1l-.4.1zm10.3-1.3v11.2h1.7v-3.8h2.4c2.2 0 3.7-1.5 3.7-3.7s-1.5-3.7-3.6-3.7h-4.2zm1.7 1.4h2c1.5 0 2.3.8 2.3 2.3s-.8 2.3-2.3 2.3h-2v-4.6zm9.2 9.8h1.7v-8.2h-1.7v8.2zm.8-9.3c.6 0 1.1-.5 1.1-1.1 0-.6-.5-1-1.1-1-.6 0-1 .4-1 1 0 .6.4 1.1 1 1.1zm4.7 4.6c0-1.5 1-2.3 2.5-2.3 1.4 0 2.1.8 2.1 2.1v4.9h1.6v-5c0-2-1.2-3.3-3-3.3-1.3 0-2.3.6-2.8 1.6h-.1v-1.5h-1.6v8.2h1.6v-4.7h-.3zm13.5-2.5h-2.3v-2h-1.7v2h-1.6v1.3h1.6v4.7c0 1.8.7 2.7 2.7 2.7.7 0 1.4-.1 1.8-.3l-.4-1.3c-.3.1-.7.2-1.1.2-.8 0-1.3-.3-1.3-1.4v-4.6h2.3v-1.3z"/>
  </symbol>
  
  <symbol id="google-pay" viewBox="0 0 48 32">
    <rect width="48" height="32" fill="#F9F9F9" rx="4"/>
    <path fill="#5F6368" d="M22.3 17.3c0-.5-.1-.9-.2-1.3h-4.8v1.8h2.9a2.4 2.4 0 0 1-1.1 1.7v1.4h1.7c1-.9 1.5-2.2 1.5-3.6z"/>
    <path fill="#4285F4" d="M17.3 21c1.4 0 2.6-.5 3.5-1.3l-1.7-1.3c-.5.3-1.1.5-1.8.5-1.4 0-2.5-1-3-2.2h-1.7v1.3a5.1 5.1 0 0 0 4.7 3z"/>
    <path fill="#FBBC05" d="M14.4 16.7c-.1-.4-.2-.8-.2-1.2s0-.8.2-1.2v-1.3h-1.7a5.1 5.1 0 0 0 0 4.6l1.7-1z"/>
    <path fill="#34A853" d="M17.3 12.1c.8 0 1.5.3 2 .8l1.5-1.5a5.1 5.1 0 0 0-8.1 1.5l1.7 1.3c.4-1.3 1.6-2.1 3-2.1z"/>
    <path fill="#5F6368" d="M27.1 19.4h1.5v-7h-1.5v7zm5.8-2.2c-.4 0-1-.2-1-.7 0-.7.7-.9 1.3-.9.6 0 .8.1 1.2.3-.1 1-1 1.3-1.5 1.3zm.1 2.3c.8 0 1.6-.4 2-1.2l-1-.6c-.2.4-.7.5-1.1.5-.8 0-1.4-.5-1.4-1.3h3.5v-.4c0-2-1.4-3-2.6-3-1.7 0-3 1.3-3 3s1.3 3 2.6 3zm-6.3-5.3h-2.2v5.2h1.5v-2h.7c1.3 0 2.5-1 2.5-2.6s-1.2-2.6-2.5-2.6zm0 3.1h-.7v-1.7h.7c.9 0 1 .7 1 .8 0 .8-.6.9-1 .9z"/>
  </symbol>
  
  <!-- Bank Payment Methods -->
  <symbol id="ideal" viewBox="0 0 48 32">
    <rect width="48" height="32" fill="#F9F9F9" rx="4"/>
    <path fill="#000" d="M14.4 9h19.2c3 0 5.4 2.4 5.4 5.4v3.2c0 3-2.4 5.4-5.4 5.4H14.4C11.4 23 9 20.6 9 17.6v-3.2c0-3 2.4-5.4 5.4-5.4z"/>
    <path fill="#FFF" d="M14.4 22c-2.4 0-4.4-2-4.4-4.4v-3.2c0-2.4 2-4.4 4.4-4.4h19.2c2.4 0 4.4 2 4.4 4.4v3.2c0 2.4-2 4.4-4.4 4.4H14.4z"/>
    <path fill="#C06" d="M17.5 13.5a3.5 3.5 0 1 0 0 7 3.5 3.5 0 0 0 0-7zm0 6a2.5 2.5 0 1 1 0-5 2.5 2.5 0 0 1 0 5z"/>
    <path fill="#000" d="M24 13.5h1v7h-1v-7zm2 0h3.5a2 2 0 0 1 2 2V17a2 2 0 0 1-2 2h-2.5v1.5h-1v-7zm3.5 4.5c.6 0 1-.4 1-1v-1.5c0-.6-.4-1-1-1h-2.5v3.5h2.5z"/>
  </symbol>
  
  <symbol id="sepa" viewBox="0 0 48 32">
    <rect width="48" height="32" fill="#F9F9F9" rx="4"/>
    <path fill="#0C7CBA" d="M9 13.3h2.9v1.5H9v-1.5zm0 2.2h2.9V17H9v-1.5zm0 2.2h2.9v1.5H9v-1.5zM13.3 13.3h2.9v1.5h-2.9v-1.5zm0 2.2h2.9V17h-2.9v-1.5zm0 2.2h2.9v1.5h-2.9v-1.5zM17.6 13.3h2.9v1.5h-2.9v-1.5zm0 2.2h2.9V17h-2.9v-1.5zm0 2.2h2.9v1.5h-2.9v-1.5zM21.9 13.3h2.9v1.5h-2.9v-1.5zm0 2.2h2.9V17h-2.9v-1.5zm0 2.2h2.9v1.5h-2.9v-1.5zM26.2 13.3h2.9v1.5h-2.9v-1.5zm0 2.2h2.9V17h-2.9v-1.5zm0 2.2h2.9v1.5h-2.9v-1.5zM30.5 13.3h2.9v1.5h-2.9v-1.5zm0 2.2h2.9V17h-2.9v-1.5zm0 2.2h2.9v1.5h-2.9v-1.5zM34.8 13.3h4.2v1.5h-4.2v-1.5zm0 2.2h4.2V17h-4.2v-1.5zm0 2.2h4.2v1.5h-4.2v-1.5z"/>
  </symbol>
  
  <symbol id="sofort" viewBox="0 0 48 32">
    <rect width="48" height="32" fill="#F9F9F9" rx="4"/>
    <path fill="#393A41" d="M13.3 10.7h21.4c1.5 0 2.6 1.2 2.6 2.6v5.4c0 1.5-1.2 2.6-2.6 2.6H13.3c-1.5 0-2.6-1.2-2.6-2.6v-5.4c0-1.5 1.2-2.6 2.6-2.6z"/>
    <path fill="#FFF" d="M18.1 14.7v2.6h-1.8v-2.6h1.8zm-1.8-1.3v-1.3h1.8v1.3h-1.8zm5.4 0h-1.8v3.9h1.8v-3.9zm0-1.3v-1.3h-1.8v1.3h1.8zm1.8 0h1.8v-1.3h-1.8v1.3zm0 1.3v3.9h1.8v-3.9h-1.8zm7.1 0v2.6h-1.8v-2.6h1.8zm-1.8-1.3v-1.3h1.8v1.3h-1.8z"/>
  </symbol>
  
  <symbol id="bancontact" viewBox="0 0 48 32">
    <rect width="48" height="32" fill="#F9F9F9" rx="4"/>
    <path fill="#005498" d="M35.7 21.7H12.3c-1.8 0-3.3-1.5-3.3-3.3v-4.8c0-1.8 1.5-3.3 3.3-3.3h23.4c1.8 0 3.3 1.5 3.3 3.3v4.8c0 1.8-1.5 3.3-3.3 3.3z"/>
    <path fill="#FFF" d="M15.2 12.2h3.4c1.9 0 3.2 1.1 3.2 2.9 0 1.8-1.3 2.9-3.2 2.9h-1.3v1.8h-2.1v-7.6zm3.2 4c.7 0 1.2-.4 1.2-1.1 0-.7-.5-1.1-1.2-1.1h-1.1v2.2h1.1zm4.4 3.6v-7.6h5.1v1.8h-3v1.1h2.9v1.8h-2.9v1.1h3v1.8h-5.1zm10.4-5.8h-2.1v-1.8h6.3v1.8h-2.1v5.8h-2.1v-5.8z"/>
    <path fill="#FFF" d="M27.1 17.6l1.3-1.5c.8.7 1.7 1 2.6 1 .6 0 .9-.2.9-.5 0-.3-.2-.5-.9-.7l-1.3-.3c-1.5-.4-2.4-1.2-2.4-2.6 0-1.6 1.2-2.7 3.3-2.7 1.4 0 2.5.4 3.4 1.1l-1.1 1.7c-.8-.5-1.6-.8-2.3-.8-.5 0-.8.2-.8.5 0 .3.2.5.9.6l1.3.3c1.6.4 2.4 1.2 2.4 2.6 0 1.8-1.4 2.8-3.5 2.8-1.5 0-2.9-.5-3.8-1.5z"/>
  </symbol>
  
  <!-- Generic Fallback -->
  <symbol id="generic-card" viewBox="0 0 48 32">
    <rect fill="#F0F0F0" x="0" y="0" width="48" height="32" rx="4"></rect>
    <rect stroke="#CCCCCC" stroke-width="1" x="0.5" y="0.5" width="47" height="31" rx="4"></rect>
    <rect fill="#CCCCCC" x="4" y="8" width="40" height="4" rx="1"></rect>
    <rect fill="#DDDDDD" x="4" y="20" width="16" height="4" rx="1"></rect>
    <rect fill="#DDDDDD" x="24" y="20" width="8" height="4" rx="1"></rect>
    <rect fill="#DDDDDD" x="36" y="20" width="8" height="4" rx="1"></rect>
  </symbol>
  
  <!-- Security Icons -->
  <symbol id="secure" viewBox="0 0 24 24">
    <path d="M12 1L3 5v6c0 5.55 3.84 10.74 9 12 5.16-1.26 9-6.45 9-12V5l-9-4zm0 10.99h7c-.53 4.12-3.28 7.79-7 8.94V12H5V6.3l7-3.11v8.8z"/>
  </symbol>
  
  <symbol id="verified" viewBox="0 0 24 24">
    <path d="M12 1L3 5v6c0 5.55 3.84 10.74 9 12 5.16-1.26 9-6.45 9-12V5l-9-4zm-2 16l-4-4 1.41-1.41L10 14.17l6.59-6.59L18 9l-8 8z"/>
  </symbol>
  
  <symbol id="encrypted" viewBox="0 0 24 24">
    <path d="M18 8h-1V6c0-2.76-2.24-5-5-5S7 3.24 7 6v2H6c-1.1 0-2 .9-2 2v10c0 1.1.9 2 2 2h12c1.1 0 2-.9 2-2V10c0-1.1-.9-2-2-2zm-6 9c-1.1 0-2-.9-2-2s.9-2 2-2 2 .9 2 2-.9 2-2 2zm3.1-9H8.9V6c0-1.71 1.39-3.1 3.1-3.1 1.71 0 3.1 1.39 3.1 3.1v2z"/>
  </symbol>
</svg>
